HIERARCHY
ROOT Hips
{
  OFFSET 53.8038 91.6517 5.46025
  CHANNELS 6 Xposition Yposition Zposition Zrotation Xrotation Yrotation
  JOINT spine
  {
    OFFSET 0 6.84637 0.3937
    CHANNELS 3 Zrotation Xrotation Yrotation
    JOINT spine1
    {
      OFFSET 0 9.49621 0
      CHANNELS 3 Zrotation Xrotation Yrotation
      JOINT spine2
      {
        OFFSET 0 9.09909 0
        CHANNELS 3 Zrotation Xrotation Yrotation
        JOINT Neck
        {
          OFFSET 0 23.3612 1.11378
          CHANNELS 3 Zrotation Xrotation Yrotation
          JOINT Head
          {
            OFFSET 0 7.05802 0
            CHANNELS 3 Zrotation Xrotation Yrotation
            End Site
            {
              OFFSET 0 17.0844 -5.63419
            }
          }
        }
        JOINT RightShoulder
        {
          OFFSET -3.83136 9.82631 -0.533491
          CHANNELS 3 Zrotation Xrotation Yrotation
          JOINT RightArm
          {
            OFFSET 0 12.8881 0
            CHANNELS 3 Zrotation Xrotation Yrotation
            JOINT RightArmRoll
            {
              OFFSET 0 6.50617 0
              CHANNELS 3 Zrotation Xrotation Yrotation
              JOINT RightForeArm
              {
                OFFSET 0 18.9501 0
                CHANNELS 3 Zrotation Xrotation Yrotation
                JOINT RightForeArmRoll
                {
                  OFFSET 0 7.30093 0
                  CHANNELS 3 Zrotation Xrotation Yrotation
                  JOINT RightHand
                  {
                    OFFSET 0 14.6514 0
                    CHANNELS 3 Zrotation Xrotation Yrotation
                    End Site
                    {
                      OFFSET 0 0 0
                    }
                  }
                }
              }
            }
          }
        }
        JOINT LeftShoulder
        {
          OFFSET 3.83136 9.82631 -0.533491
          CHANNELS 3 Zrotation Xrotation Yrotation
          JOINT LeftArm
          {
            OFFSET 0 12.8881 0
            CHANNELS 3 Zrotation Xrotation Yrotation
            JOINT LeftArmRoll
            {
              OFFSET 0 6.50617 0
              CHANNELS 3 Zrotation Xrotation Yrotation
              JOINT LeftForeArm
              {
                OFFSET 0 18.9501 0
                CHANNELS 3 Zrotation Xrotation Yrotation
                JOINT LeftForeArmRoll
                {
                  OFFSET 0 7.30093 0
                  CHANNELS 3 Zrotation Xrotation Yrotation
                  JOINT LeftHand
                  {
                    OFFSET 0 14.6514 0
                    CHANNELS 3 Zrotation Xrotation Yrotation
                    End Site
                    {
                      OFFSET 0 0 0
                    }
                  }
                }
              }
            }
          }
        }
      }
    }
  }
  JOINT RightUpLeg
  {
    OFFSET -6.06837 -1.11278 -0.933477
    CHANNELS 3 Zrotation Xrotation Yrotation
    JOINT RightUpLegRoll
    {
      OFFSET 0 17.1796 0
      CHANNELS 3 Zrotation Xrotation Yrotation
      JOINT RightLeg
      {
        OFFSET 0 -21.2743 0
        CHANNELS 3 Zrotation Xrotation Yrotation
        JOINT RightLegRoll
        {
          OFFSET 0 21.3439 0
          CHANNELS 3 Zrotation Xrotation Yrotation
          JOINT RightFoot
          {
            OFFSET 0 17.7652 0
            CHANNELS 3 Zrotation Xrotation Yrotation
            JOINT RightToeBase
            {
              OFFSET 0 14.8508 0
              CHANNELS 3 Zrotation Xrotation Yrotation
              End Site
              {
                OFFSET 0.0062947 7.19213 -0.829005
              }
            }
          }
        }
      }
    }
  }
  JOINT LeftUpLeg
  {
    OFFSET 6.06837 -1.11278 -0.933477
    CHANNELS 3 Zrotation Xrotation Yrotation
    JOINT LeftUpLegRoll
    {
      OFFSET 0 17.1797 0
      CHANNELS 3 Zrotation Xrotation Yrotation
      JOINT LeftLeg
      {
        OFFSET 0 21.2742 0
        CHANNELS 3 Zrotation Xrotation Yrotation
        JOINT LeftLegRoll
        {
          OFFSET 0 21.5412 0
          CHANNELS 3 Zrotation Xrotation Yrotation
          JOINT LeftFoot
          {
            OFFSET 0 17.5679 0
            CHANNELS 3 Zrotation Xrotation Yrotation
            JOINT LeftToeBase
            {
              OFFSET 0 14.8508 0
              CHANNELS 3 Zrotation Xrotation Yrotation
              End Site
              {
                OFFSET -0.0282102 7.19213 -0.829005
              }
            }
          }
        }
      }
    }
  }
}
MOTION
Frames: 9
Frame Time: 0.00208333
53.8158 91.567 4.57855 -1.82236 3.67158 -4.17804 -0.384435 -3.38755 0.0841437 -0.76283 -2.77312 0.202688 -0.764846 -1.12813 0.20917 25.6152 15.8826 -6.88866 -19.1343 7.6015 1.10923 30.379 -16.4339 -12.979 -5.34503 40.4775 94.3434 -9.97553e-006 -2.50525e-006 -7.73944e-006 -8.20781 10.2474 0.385695 -2.42304e-006 -3.55685e-006 -3 8.02952 -4.95141 0.69766 3.99344 -25.0127 36.4481 44.5682 53.418 -148.16 2.03902e-010 9.45611e-009 1.84358e-006 15.2691 4.27805 -3.48069 3.04519e-006 -6.30771e-008 3.00943 -8.02903 -4.95148 -0.697684 178.064 7.60203 -1.2539 180 7.01584e-015 179.096 178.802 5.27927 179.901 2.78821e-006 1.24602e-006 0.0283092 -18.3596 67.6282 19.2242 8.13649 25.2326 -3.48773 -172.082 5.30684 -1.74418 4.54188e-006 -4.6773e-006 -0.960508 -2.07283 -5.75354 0.0377085 -3.26904e-006 -1.82194e-007 -0.0734422 18.8883 68.3451 -19.8426 -8.13649 25.2327 3.48774 
53.8224 91.5679 4.57396 -1.81993 3.67349 -4.17446 -0.381552 -3.38324 0.0834475 -0.757117 -2.76442 0.201274 -0.759119 -1.11943 0.207602 25.5442 15.8055 -6.83312 -19.097 7.59865 1.12457 30.4726 -16.3917 -12.9228 -4.86201 40.4215 93.8537 -9.97553e-006 -2.50525e-006 -7.73944e-006 -8.16224 10.1814 0.369824 -2.42304e-006 -3.55685e-006 -3 8.02952 -4.95141 0.69766 3.78585 -24.969 36.2333 43.9816 53.7176 -147.479 2.03899e-010 9.4561e-009 1.84358e-006 15.1134 4.12215 -3.42108 3.04519e-006 -6.30771e-008 3.00943 -8.02903 -4.95148 -0.697684 178.062 7.60899 -1.25303 180 7.01584e-015 179.096 178.802 5.27923 179.901 2.78821e-006 1.24602e-006 0.0283037 -18.3596 67.6282 19.2241 8.13649 25.2326 -3.48773 -172.084 5.30706 -1.74356 4.54188e-006 -4.6773e-006 -0.960369 -2.07462 -5.74082 0.0380271 -3.26904e-006 -1.82194e-007 -0.0735484 18.8845 68.3407 -19.8383 -8.13649 25.2327 3.48774 
53.8237 91.5674 4.56383 -1.81831 3.67659 -4.17114 -0.378654 -3.37888 0.0828728 -0.75137 -2.75564 0.199998 -0.753361 -1.11065 0.20629 25.4897 15.7117 -6.77933 -19.0835 7.61202 1.14251 30.5691 -16.3517 -12.8688 -4.38072 40.3641 93.3684 -9.97553e-006 -2.50525e-006 -7.73944e-006 -8.11753 10.1195 0.354548 -2.42304e-006 -3.55685e-006 -3 8.02952 -4.95141 0.69766 3.54072 -24.9131 35.9727 43.3294 53.9942 -146.69 2.03915e-010 9.45612e-009 1.84358e-006 14.9461 3.95654 -3.35888 3.04519e-006 -6.30771e-008 3.00942 -8.02903 -4.95148 -0.697684 178.061 7.61701 -1.2532 180 7.01584e-015 179.096 178.802 5.27912 179.901 2.78821e-006 1.24602e-006 0.0282982 -18.3596 67.6282 19.224 8.13649 25.2326 -3.48773 -172.084 5.31121 -1.74408 4.54188e-006 -4.6773e-006 -0.960231 -2.07669 -5.73273 0.0381716 -3.26904e-006 -1.82194e-007 -0.0736533 18.8824 68.3383 -19.8358 -8.13649 25.2327 3.48774 
53.8267 91.5622 4.55649 -1.8174 3.68082 -4.16802 -0.375787 -3.37448 0.0823965 -0.74568 -2.74675 0.198829 -0.747662 -1.10176 0.205194 25.4517 15.6006 -6.72682 -19.0932 7.64194 1.16347 30.6694 -16.3141 -12.8173 -3.90137 40.3049 92.8856 -9.97553e-006 -2.50525e-006 -7.73944e-006 -8.07312 10.0613 0.339732 -2.42304e-006 -3.55685e-006 -3 8.02952 -4.95141 0.69766 3.25725 -24.8444 35.6652 42.6073 54.2443 -145.784 2.03908e-010 9.4561e-009 1.84358e-006 14.7651 3.78007 -3.29353 3.04519e-006 -6.30771e-008 3.00941 -8.02903 -4.95148 -0.697684 178.062 7.62607 -1.25436 180 7.01584e-015 179.096 178.802 5.27897 179.901 2.78821e-006 1.24602e-006 0.0282929 -18.3596 67.6281 19.2238 8.13649 25.2326 -3.48773 -172.083 5.31865 -1.74578 4.54188e-006 -4.6773e-006 -0.960092 -2.07921 -5.72831 0.0381714 -3.26904e-006 -1.82194e-007 -0.0737619 18.8816 68.3374 -19.8348 -8.13649 25.2327 3.48774 
53.8219 91.5625 4.54563 -1.81708 3.68608 -4.16514 -0.372947 -3.37004 0.0820017 -0.74004 -2.73777 0.197745 -0.742015 -1.09277 0.204279 25.428 15.4743 -6.67537 -19.1231 7.6864 1.18711 30.7729 -16.2788 -12.7679 -3.42359 40.2441 92.4054 -9.97553e-006 -2.50525e-006 -7.73944e-006 -8.02908 10.0064 0.325351 -2.42304e-006 -3.55685e-006 -3 8.02952 -4.95141 0.69766 2.94115 -24.764 35.3179 41.8225 54.4678 -144.777 2.03908e-010 9.45613e-009 1.84358e-006 14.5727 3.59454 -3.22563 3.04519e-006 -6.30771e-008 3.00941 -8.02903 -4.95148 -0.697684 178.063 7.63612 -1.25635 180 7.01584e-015 179.096 178.802 5.2788 179.901 2.78821e-006 1.24602e-006 0.0282876 -18.3595 67.628 19.2237 8.13649 25.2326 -3.48773 -172.081 5.32897 -1.74846 4.54188e-006 -4.6773e-006 -0.959952 -2.08211 -5.72708 0.0380441 -3.26904e-006 -1.82194e-007 -0.0738723 18.8819 68.3379 -19.835 -8.13649 25.2327 3.48774 
53.8206 91.5659 4.53676 -1.81722 3.69227 -4.16255 -0.370131 -3.36555 0.0816716 -0.734445 -2.72868 0.196721 -0.736415 -1.08368 0.203506 25.4163 15.3349 -6.62474 -19.1701 7.7434 1.21308 30.8793 -16.2454 -12.7204 -2.94704 40.1816 91.9278 -9.97553e-006 -2.50525e-006 -7.73944e-006 -7.98547 9.95457 0.311383 -2.42304e-006 -3.55685e-006 -3 8.02952 -4.95141 0.69766 2.59811 -24.6731 34.9375 40.9825 54.665 -143.684 2.03905e-010 9.45609e-009 1.84358e-006 14.3709 3.40175 -3.15578 3.04519e-006 -6.30771e-008 3.0094 -8.02903 -4.95148 -0.697684 178.065 7.64706 -1.25903 180 7.01584e-015 179.097 178.803 5.2786 179.901 2.78821e-006 1.24602e-006 0.0282823 -18.3595 67.6279 19.2235 8.13649 25.2326 -3.48773 -172.078 5.3418 -1.75194 4.54188e-006 -4.6773e-006 -0.959813 -2.08531 -5.72854 0.0378074 -3.26904e-006 -1.82194e-007 -0.0739823 18.8832 68.3395 -19.8362 -8.13649 25.2327 3.48774 
53.8225 91.5653 4.52833 -1.81769 3.69927 -4.16028 -0.367337 -3.36102 0.0813892 -0.728891 -2.71949 0.195736 -0.730855 -1.07449 0.202841 25.4144 15.1845 -6.5747 -19.2312 7.81094 1.24104 30.988 -16.2136 -12.6746 -2.47138 40.1175 91.4527 -9.97553e-006 -2.50525e-006 -7.73944e-006 -7.94234 9.90539 0.297805 -2.42304e-006 -3.55685e-006 -3 8.02952 -4.95141 0.69766 2.23374 -24.573 34.5309 40.0958 54.8365 -142.522 2.03892e-010 9.4561e-009 1.84358e-006 14.162 3.2035 -3.08454 3.04519e-006 -6.30771e-008 3.0094 -8.02903 -4.95148 -0.697684 178.068 7.65884 -1.26225 180 7.01584e-015 179.097 178.804 5.27839 179.901 2.78821e-006 1.24602e-006 0.0282771 -18.3594 67.6278 19.2233 8.13649 25.2326 -3.48773 -172.074 5.35673 -1.75602 4.54188e-006 -4.6773e-006 -0.959673 -2.08874 -5.73222 0.0374787 -3.26904e-006 -1.82194e-007 -0.07409 18.8854 68.342 -19.8383 -8.13649 25.2327 3.48774 
53.8243 91.5638 4.52014 -1.81835 3.70697 -4.15838 -0.364559 -3.35645 0.0811375 -0.72337 -2.71021 0.194767 -0.72533 -1.06521 0.202245 25.4198 15.0251 -6.525 -19.3033 7.88702 1.27063 31.0986 -16.1831 -12.6301 -1.99619 40.052 90.9801 -9.97553e-006 -2.50525e-006 -7.73944e-006 -7.89977 9.85857 0.284593 -2.42304e-006 -3.55685e-006 -3 8.02952 -4.95141 0.69766 1.85354 -24.4652 34.1049 39.1711 54.9837 -141.306 2.03889e-010 9.45609e-009 1.84358e-006 13.9482 3.00158 -3.01251 3.04519e-006 -6.30771e-008 3.00939 -8.02903 -4.95148 -0.697684 178.071 7.67136 -1.26584 180 7.01584e-015 179.097 178.805 5.27818 179.901 2.78821e-006 1.24602e-006 0.028272 -18.3594 67.6277 19.2231 8.13649 25.2326 -3.48773 -172.069 5.37338 -1.76051 4.54188e-006 -4.6773e-006 -0.959534 -2.09232 -5.73761 0.0370758 -3.26904e-006 -1.82194e-007 -0.0741933 18.8881 68.3452 -19.841 -8.13649 25.2327 3.48774 
53.829 91.5638 4.50914 -1.81907 3.71527 -4.15687 -0.361797 -3.35183 0.0808998 -0.717877 -2.70084 0.193791 -0.719835 -1.05583 0.201682 25.4305 14.8587 -6.4754 -19.3834 7.96964 1.30152 31.2106 -16.1537 -12.5867 -1.52114 39.9849 90.5101 -9.97553e-006 -2.50525e-006 -7.73944e-006 -7.85781 9.81379 0.271724 -2.42304e-006 -3.55685e-006 -3 8.02952 -4.95141 0.69766 1.46292 -24.3512 33.6662 38.2175 55.1085 -140.053 2.03899e-010 9.45612e-009 1.84358e-006 13.7315 2.79781 -2.94027 3.04519e-006 -6.30771e-008 3.00939 -8.02903 -4.95148 -0.697684 178.075 7.68457 -1.26967 180 7.01584e-015 179.097 178.806 5.27793 179.9 2.78821e-006 1.24602e-006 0.028267 -18.3593 67.6276 19.2229 8.13649 25.2326 -3.48773 -172.064 5.39134 -1.76521 4.54188e-006 -4.6773e-006 -0.959394 -2.09599 -5.74425 0.0366162 -3.26904e-006 -1.82194e-007 -0.0742903 18.8913 68.349 -19.8442 -8.13649 25.2327 3.48774 
